{"title":"Underworld.Awakening.2012.R5.XviD.AC3.5.1-INFERNO","uid":7035059,"size":1499331606,"categoryP":"video","categoryS":"movies","magnet":"?xt=urn:btih:4f440bda760f726b0e479b2cca5f13c0c031e35a&amp;dn=Underworld.Awakening.2012.R5.XviD.AC3.5.1-INFERNO&amp;tr=udp%3A%2F%2Ftracker.openbittorrent.com%3A80&amp;tr=udp%3A%2F%2Fopen.demonii.com%3A1337&amp;tr=udp%3A%2F%2Ftracker.coppersurfer.tk%3A6969&amp;tr=udp%3A%2F%2Fexodus.desync.com%3A6969","seeders":0,"leechers":1,"uploader":"TvTeam","files":5,"time":1329347195,"description":". \n &lt;a href=&quot;\nhttp://www.torrenting.com&quot; rel=&quot;nofollow&quot; target=&quot;_NEW&quot;&gt;\nhttp://www.torrenting.com&lt;/a&gt;          :     Once &amp; For all ;)\n\n\n               www . Torrenting . Com \n\n(((((((((((((= Enjoy No RAR releases =))))))))))))))))))))\n\n\n...................................NFO:....................................\n\n.[center][img]http://lookpic.com/O/i2/1560/yWbO8jV8.jpeg[/img][/center]\n[img]http://lookpic.com/O/i2/298/l4OrvnSi.png[/img]\n\n[b] k so we made a nice 5.1 audio track\n for this with the audio from the DVDR and the BiDA\nrelease, movie is much better now with full AC3\naction flicks always are so we cleaned and filtered the audio, \nsynced it to our release and made the 5.1 mix which\ncame out nice after the 4:15 mark where\nthe cam audio ended, did the usual to the video\nso enjoy :) \nSample included[/b]\n\n[pre][b]\nUnderworld.Awakening.2012.R5.XviD.AC3.5.1-INFERNO\n\nFormat                           : AVI\nFormat/Info                      : Audio Video Interleave\nFile size                        : 1.37 GiB\nDuration                         : 1h 25mn\nOverall bit rate                 : 2 302 Kbps\n\n\nVideo\nID                               : 0\nFormat                           : MPEG-4 Visual\nFormat profile                   : Advanced Simple@L5\nFormat settings, BVOP            : 2\nFormat settings, QPel            : No\nFormat settings, GMC             : No warppoints\nFormat settings, Matrix          : Default (MPEG)\nMuxing mode                      : Packed bitstream\nCodec ID                         : XVID\nCodec ID/Hint                    : XviD\nDuration                         : 1h 25mn\nBit rate                         : 1 844 Kbps\nWidth                            : 720 pixels\nHeight                           : 304 pixels\nDisplay aspect ratio             : 2.35:1\nFrame rate                       : 25.000 fps\nColor space                      : YUV\nChroma subsampling               : 4:2:0\nBit depth                        : 8 bits\nScan type                        : Progressive\nCompression mode                 : Lossy\nBits/(Pixel*Frame)               : 0.337\nStream size                      : 1.10 GiB (80%)\nWriting library                  : XviD 64\n\nAudio\nID                               : 1\nFormat                           : AC-3\nFormat/Info                      : Audio Coding 3\nMode extension                   : CM (complete main)\nCodec ID                         : 2000\nDuration                         : 1h 25mn\nBit rate mode                    : Constant\nBit rate                         : 448 Kbps\nChannel(s)                       : 6 channels\nChannel positions                : Front: L C R, Side: L R, LFE\nSampling rate                    : 48.0 KHz\nBit depth                        : 16 bits\nCompression mode                 : Lossy\nStream size                      : 273 MiB (19%)\nAlignment                        : Aligned on interleaves\nInterleave, duration             : 40 ms (1.00 video frame)\nInterleave, preload duration     : 512 ms[/b]","torrent":{"xt":"urn:btih:4f440bda760f726b0e479b2cca5f13c0c031e35a","amp;dn":"Underworld.Awakening.2012.R5.XviD.AC3.5.1-INFERNO","amp;tr":["udp%3A%2F%2Ftracker.openbittorrent.com%3A80","udp%3A%2F%2Fopen.demonii.com%3A1337","udp%3A%2F%2Ftracker.coppersurfer.tk%3A6969","udp%3A%2F%2Fexodus.desync.com%3A6969"],"infoHash":"4f440bda760f726b0e479b2cca5f13c0c031e35a","infoHashBuffer":{"type":"Buffer","data":[79,68,11,218,118,15,114,107,14,71,155,44,202,95,19,192,192,49,227,90]},"announce":[],"urlList":[]}}